<svg xmlns="http://www.w3.org/2000/svg" version="1.1" xmlns:xlink="http://www.w3.org/1999/xlink" xmlns:svgjs="http://svgjs.dev/svgjs" width="1000" height="999" viewBox="0 0 1000 999"><g transform="matrix(1,0,0,1,-0.215743440233382,-0.21552769679306039)"><svg viewBox="0 0 343 343" data-background-color="#ffffff" preserveAspectRatio="xMidYMid meet" height="999" width="1000" xmlns="http://www.w3.org/2000/svg" xmlns:xlink="http://www.w3.org/1999/xlink"><g id="tight-bounds" transform="matrix(1,0,0,1,0.0740000000000407,0.07400000000001228)"><svg viewBox="0 0 342.85155851775386 342.85155851775386" height="342.85155851775386" width="342.85155851775386"><g><svg></svg></g><g><svg viewBox="0 0 342.85155851775386 342.85155851775386" height="342.85155851775386" width="342.85155851775386"><g><path d="M0 171.426c0-94.676 76.75-171.426 171.426-171.426 94.676 0 171.426 76.75 171.426 171.426 0 94.676-76.75 171.426-171.426 171.426-94.676 0-171.426-76.75-171.426-171.426zM171.426 338.521c92.284 0 167.096-74.811 167.095-167.095 0-92.284-74.811-167.096-167.095-167.096-92.284 0-167.096 74.811-167.096 167.096 0 92.284 74.811 167.096 167.096 167.095z" data-fill-palette-color="tertiary" fill="#010c80" stroke="transparent"></path><ellipse rx="164.56874808852186" ry="164.56874808852186" cx="171.42577925887693" cy="171.42577925887693" fill="#010c80" stroke="transparent" stroke-width="0" fill-opacity="1" data-fill-palette-color="tertiary"></ellipse></g><g transform="matrix(1,0,0,1,64.84655864529837,108.57138612570583)"><svg viewBox="0 0 213.1584412271571 125.7087862663422" height="125.7087862663422" width="213.1584412271571"><g><svg viewBox="0 0 213.1584412271571 125.7087862663422" height="125.7087862663422" width="213.1584412271571"><g><svg viewBox="0 0 213.1584412271571 125.7087862663422" height="125.7087862663422" width="213.1584412271571"><g transform="matrix(1,0,0,1,0,77.69307309898488)"><svg viewBox="0 0 213.1584412271571 48.015713167357326" height="48.015713167357326" width="213.1584412271571"><g><svg viewBox="0 0 213.1584412271571 48.015713167357326" height="48.015713167357326" width="213.1584412271571"><g><svg viewBox="0 0 213.1584412271571 48.015713167357326" height="48.015713167357326" width="213.1584412271571"><g transform="matrix(1,0,0,1,0,0)"><svg width="213.1584412271571" viewBox="3.5 -37.20000076293945 217.72999572753906 49.05000305175781" height="48.015713167357326" data-palette-color="#ffffff"><path d="M8.5 11.85L3.5 11.85 3.5-26.75 7.6-26.75 8.5-24.05Q9.45-24.75 10.78-25.45 12.1-26.15 13.68-26.63 15.25-27.1 16.85-27.1L16.85-27.1Q19.4-27.1 21.23-26.05 23.05-25 24.2-23.13 25.35-21.25 25.88-18.75 26.4-16.25 26.4-13.4L26.4-13.4Q26.4-8.95 25.43-5.88 24.45-2.8 22.38-1.23 20.3 0.35 16.85 0.35L16.85 0.35Q14.75 0.35 12.55-0.28 10.35-0.9 8.5-1.95L8.5-1.95 8.5 11.85ZM15.35-3.85L15.35-3.85Q17.05-3.85 18.4-4.7 19.75-5.55 20.58-7.63 21.4-9.7 21.4-13.4L21.4-13.4Q21.4-16.9 20.55-19.03 19.7-21.15 18.35-22.08 17-23 15.4-23L15.4-23Q13.3-23 11.58-22.35 9.85-21.7 8.5-21L8.5-21 8.5-5.75Q10.05-4.9 11.83-4.38 13.6-3.85 15.35-3.85ZM36.9-31.25L33.2-31.25Q32.3-31.25 32.3-32.1L32.3-32.1 32.3-36.3Q32.3-37.2 33.2-37.2L33.2-37.2 36.9-37.2Q37.3-37.2 37.5-36.95 37.7-36.7 37.7-36.3L37.7-36.3 37.7-32.1Q37.7-31.25 36.9-31.25L36.9-31.25ZM37.5 0L32.5 0 32.5-26.75 37.5-26.75 37.5 0ZM49.5 11.85L44.5 11.85 44.5-26.75 48.6-26.75 49.5-24.05Q50.45-24.75 51.77-25.45 53.1-26.15 54.67-26.63 56.25-27.1 57.85-27.1L57.85-27.1Q60.4-27.1 62.22-26.05 64.05-25 65.2-23.13 66.34-21.25 66.87-18.75 67.4-16.25 67.4-13.4L67.4-13.4Q67.4-8.95 66.42-5.88 65.45-2.8 63.37-1.23 61.3 0.35 57.85 0.35L57.85 0.35Q55.75 0.35 53.55-0.28 51.35-0.9 49.5-1.95L49.5-1.95 49.5 11.85ZM56.35-3.85L56.35-3.85Q58.05-3.85 59.4-4.7 60.75-5.55 61.57-7.63 62.4-9.7 62.4-13.4L62.4-13.4Q62.4-16.9 61.55-19.03 60.7-21.15 59.35-22.08 58-23 56.4-23L56.4-23Q54.3-23 52.57-22.35 50.85-21.7 49.5-21L49.5-21 49.5-5.75Q51.05-4.9 52.82-4.38 54.6-3.85 56.35-3.85ZM84.04 0.3L84.04 0.3Q79.79 0.3 77.27-0.95 74.74-2.2 73.67-5.18 72.59-8.15 72.59-13.4L72.59-13.4Q72.59-18.75 73.67-21.73 74.74-24.7 77.24-25.9 79.74-27.1 83.99-27.1L83.99-27.1Q87.69-27.1 89.97-26.33 92.24-25.55 93.32-23.58 94.39-21.6 94.39-18.1L94.39-18.1Q94.39-15.65 93.42-14.2 92.44-12.75 90.67-12.1 88.89-11.45 86.44-11.45L86.44-11.45 77.59-11.45Q77.64-8.55 78.27-6.83 78.89-5.1 80.52-4.33 82.14-3.55 85.29-3.55L85.29-3.55 93.64-3.55 93.64-0.55Q91.49-0.25 89.24 0.03 86.99 0.3 84.04 0.3ZM77.54-14.6L77.54-14.6 85.99-14.6Q87.99-14.6 88.94-15.35 89.89-16.1 89.89-18.1L89.89-18.1Q89.89-20.1 89.32-21.25 88.74-22.4 87.44-22.9 86.14-23.4 83.99-23.4L83.99-23.4Q81.54-23.4 80.12-22.65 78.69-21.9 78.12-20 77.54-18.1 77.54-14.6ZM113.84 0L108.79 0 108.79-32.35 97.79-32.35 97.79-36.85 124.84-36.85 124.84-32.35 113.84-32.35 113.84 0ZM135.99 0.3L135.99 0.3Q132.24 0.3 130.16-1.73 128.09-3.75 128.09-7.9L128.09-7.9 128.09-26.75 133.09-26.75 133.09-9.25Q133.09-6.25 134.46-5.2 135.84-4.15 138.34-4.15L138.34-4.15Q140.34-4.15 142.16-4.78 143.99-5.4 145.74-6.5L145.74-6.5 145.74-26.75 150.74-26.75 150.74 0 146.74 0 145.74-2.85Q143.79-1.6 141.26-0.65 138.74 0.3 135.99 0.3ZM170.94 0L166.89 0Q164.19 0 162.41-0.88 160.64-1.75 159.81-3.7 158.99-5.65 159.04-8.9L159.04-8.9 159.24-22.65 154.99-22.65 154.99-25.9 159.34-26.75 160.09-34.25 164.04-34.25 164.04-26.75 171.29-26.75 171.29-22.65 164.04-22.65 164.04-8.95Q164.04-7.4 164.34-6.45 164.64-5.5 165.19-5 165.74-4.5 166.39-4.28 167.04-4.05 167.64-4L167.64-4 170.94-3.7 170.94 0ZM187.23 0.3L187.23 0.3Q184.18 0.3 181.96-0.35 179.73-1 178.28-2.53 176.83-4.05 176.13-6.7 175.43-9.35 175.43-13.4L175.43-13.4Q175.43-17.6 176.13-20.28 176.83-22.95 178.28-24.45 179.73-25.95 181.98-26.53 184.23-27.1 187.23-27.1L187.23-27.1Q190.23-27.1 192.48-26.5 194.73-25.9 196.18-24.4 197.63-22.9 198.33-20.23 199.03-17.55 199.03-13.4L199.03-13.4Q199.03-9.3 198.33-6.63 197.63-3.95 196.21-2.45 194.78-0.95 192.53-0.33 190.28 0.3 187.23 0.3ZM187.23-3.8L187.23-3.8Q188.88-3.8 190.16-4.1 191.43-4.4 192.28-5.38 193.13-6.35 193.58-8.3 194.03-10.25 194.03-13.45L194.03-13.45Q194.03-16.65 193.58-18.57 193.13-20.5 192.28-21.45 191.43-22.4 190.16-22.73 188.88-23.05 187.23-23.05L187.23-23.05Q185.53-23.05 184.26-22.73 182.98-22.4 182.16-21.45 181.33-20.5 180.91-18.57 180.48-16.65 180.48-13.45L180.48-13.45Q180.48-10.25 180.91-8.3 181.33-6.35 182.16-5.38 182.98-4.4 184.26-4.1 185.53-3.8 187.23-3.8ZM210.13 0L205.13 0 205.13-26.75 208.98-26.75 210.13-22.25Q211.83-24.3 213.93-25.7 216.03-27.1 218.83-27.1L218.83-27.1Q219.48-27.1 220.08-27.03 220.68-26.95 221.23-26.8L221.23-26.8 221.23-21.65Q220.53-21.75 219.78-21.83 219.03-21.9 218.23-21.9L218.23-21.9Q216.53-21.9 215.18-21.5 213.83-21.1 212.61-20.28 211.38-19.45 210.13-18.25L210.13-18.25 210.13 0Z" opacity="1" transform="matrix(1,0,0,1,0,0)" fill="#ffffff" class="undefined-text-0" data-fill-palette-color="quaternary" id="text-0"></path></svg></g></svg></g></svg></g></svg></g><g transform="matrix(1,0,0,1,75.47625954105646,0)"><svg viewBox="0 0 62.20592214504419 66.35771559728784" height="66.35771559728784" width="62.20592214504419"><g><svg xmlns="http://www.w3.org/2000/svg" viewBox="10.540000915527344 5.0521392822265625 84.25448608398438 89.87786102294922" x="0" y="0" height="66.35771559728784" width="62.20592214504419" class="icon-icon-0" data-fill-palette-color="quaternary" id="icon-0"><path class="a" d="M94.72 76.46l-3.64-5L85.6 49.33a5.91 5.91 0 0 0 3.69-2.14c0.94-1.21-3.51-3.69-2.82-8.44 0 0 1.74-22.48-16.86-22.48C61.39 16.27 59 21.59 58 28.33L51.38 9.94c-0.4-1.46-1.64-2.42-2.77-2.13S46.9 9.5 47.3 11l9.18 33.38c-0.11 0.65-0.24 1.28-0.4 1.9L32.66 6.42a2.82 2.82 0 0 0-3.81-1 2.72 2.72 0 0 0-1 3.76L53.22 52.27c-0.16 0.18-0.31 0.37-0.47 0.54l-0.15 0.13L37.76 38.42a2.82 2.82 0 0 0-3.95 0 2.72 2.72 0 0 0 0 3.89L48 56.16l-1 0.53L34.49 50.32a3 3 0 0 0-3.88 1 2.59 2.59 0 0 0 1 3.65l8.93 4.55c-13 5.13-30 9.78-30 21.41 0 10.46 7.75 14 16.87 14 16.49 0 37.78-5.38 47.78-22.49 5.51-9.42-3.29-30.92 2.81-30.92 0 0-2.38 3.57 0 5.63a9.69 9.69 0 0 0 3.88 2L87.44 71.4v7.11a1.87 1.87 0 0 0 2.31 1.4l3.64-1A2 2 0 0 0 94.72 76.46Z" fill-rule="evenodd" fill="#ffffff" data-fill-palette-color="quaternary"></path></svg></g></svg></g><g></g></svg></g></svg></g></svg></g></svg></g><defs></defs></svg><rect width="342.85155851775386" height="342.85155851775386" fill="none" stroke="none" visibility="hidden"></rect></g></svg></g></svg>